<?xml version="1.0" standalone="no"?>
<!DOCTYPE svg PUBLIC "-//W3C//DTD SVG 20010904//EN"
 "http://www.w3.org/TR/2001/REC-SVG-20010904/DTD/svg10.dtd">
<svg version="1.0" xmlns="http://www.w3.org/2000/svg"
 width="500.000000pt" height="500.000000pt" viewBox="0 0 500.000000 500.000000"
 preserveAspectRatio="xMidYMid meet">

<g transform="translate(0.000000,500.000000) scale(0.100000,-0.100000)"
fill="#000000" stroke="none">
<path d="M0 2500 l0 -2500 2500 0 2500 0 0 2500 0 2500 -2500 0 -2500 0 0
-2500z m2807 2210 c479 -70 890 -270 1238 -601 477 -456 725 -1105 678 -1775
-45 -636 -370 -1229 -886 -1617 -251 -189 -585 -340 -889 -401 -308 -63 -688
-58 -968 14 -207 52 -360 111 -530 202 -654 349 -1094 1005 -1171 1744 -17
165 -7 468 20 609 46 242 105 415 214 630 336 656 980 1110 1707 1200 165 20
432 18 587 -5z"/>
<path d="M2275 4584 c-278 -41 -480 -100 -690 -203 -632 -308 -1055 -888
-1160 -1588 -19 -133 -20 -417 0 -565 60 -460 265 -876 595 -1208 263 -265
583 -448 951 -544 195 -52 363 -69 589 -63 213 6 353 27 535 82 349 105 644
284 896 541 339 348 535 760 590 1244 16 141 6 421 -20 570 -134 769 -669
1389 -1409 1637 -224 75 -346 94 -617 98 -126 2 -243 1 -260 -1z m-117 -1479
c116 -54 220 -204 258 -372 20 -92 15 -295 -11 -393 -39 -148 -130 -281 -225
-330 -61 -31 -140 -29 -191 5 -94 61 -135 189 -126 389 2 66 12 154 22 194
l17 73 -26 39 c-14 21 -31 60 -38 87 -12 47 -12 45 -49 -202 -42 -278 -79
-619 -79 -731 0 -75 -9 -95 -30 -69 -9 11 -8 68 4 257 18 271 33 406 76 678
36 237 42 301 30 320 -9 13 -14 10 -35 -15 -55 -66 -199 -386 -229 -510 -17
-69 -68 -183 -92 -206 l-26 -24 -20 25 c-20 24 -20 33 -14 208 4 125 3 181 -4
177 -13 -8 -53 -86 -81 -156 -11 -29 -44 -145 -74 -258 -66 -252 -86 -304
-117 -299 -18 2 -28 16 -43 58 -17 49 -19 81 -19 275 0 238 13 366 60 573 31
138 47 182 68 182 21 0 20 -4 -8 -118 -49 -195 -78 -428 -80 -647 -1 -148 10
-275 24 -275 10 0 39 89 80 245 59 231 132 419 174 454 22 19 49 10 57 -19 4
-14 4 -104 2 -200 -4 -132 -3 -172 6 -164 6 6 45 105 86 220 88 244 178 436
233 493 43 45 49 47 77 27 15 -11 20 -30 23 -85 l4 -72 23 48 c61 130 172 174
293 118z m1586 -59 c2 -15 -1 -29 -5 -32 -27 -17 1 -19 72 -7 104 18 193 14
197 -8 2 -13 -5 -16 -45 -13 -26 3 -93 -4 -148 -13 l-100 -18 -11 -115 c-7
-63 -12 -235 -13 -382 -1 -147 -5 -269 -10 -272 -23 -14 -33 30 -38 163 l-6
139 -52 -53 c-97 -99 -175 -83 -193 39 l-7 47 -72 -53 -72 -53 6 -46 c7 -63
-19 -140 -66 -190 -31 -32 -45 -39 -75 -39 -30 0 -38 5 -46 26 -18 47 6 107
75 184 25 28 45 55 45 59 0 5 -22 31 -50 57 -40 38 -50 55 -50 80 0 38 47 94
79 94 29 0 27 -28 -4 -52 -35 -28 -31 -46 21 -99 l46 -47 83 60 c74 53 84 63
94 103 9 34 16 45 31 45 19 0 20 -5 14 -102 -6 -92 -4 -105 12 -125 18 -22 20
-22 52 -6 19 9 57 44 86 78 l53 62 6 174 c3 96 9 183 13 193 7 17 4 18 -32 12
-71 -14 -221 -66 -247 -86 -30 -24 -57 -26 -57 -5 0 30 66 58 300 127 38 11
46 18 55 49 20 71 53 85 59 25z m-248 -243 c5 -19 2 -30 -12 -40 -26 -19 -49
5 -40 41 9 36 43 35 52 -1z m-936 -155 c0 -13 -7 -45 -15 -72 -25 -81 -17 -84
30 -13 66 97 83 92 95 -30 5 -47 13 -81 24 -91 14 -15 18 -14 42 9 14 13 39
43 56 67 30 44 48 53 48 25 0 -21 -74 -119 -101 -134 -53 -28 -94 18 -107 119
l-7 57 -45 -75 c-76 -127 -126 -94 -87 57 21 82 67 137 67 81z m1338 -9 c4
-32 -27 -71 -73 -93 -42 -20 -46 -48 -10 -72 32 -21 69 -9 142 47 29 23 57 39
60 35 22 -22 -103 -115 -165 -123 -36 -5 -45 -2 -72 25 -34 34 -39 72 -16 125
31 75 127 116 134 56z m-2313 -1493 c-8 -36 -25 -150 -25 -169 0 -14 21 1 76
52 64 60 79 69 95 61 10 -6 19 -13 19 -16 0 -7 -80 -165 -97 -191 -8 -12 -21
-19 -29 -16 -11 4 -4 24 30 89 24 46 40 84 37 84 -4 0 -36 -29 -71 -65 -95
-96 -106 -90 -85 41 8 49 15 94 14 99 0 6 -20 -30 -45 -78 -38 -74 -47 -87
-59 -77 -13 11 -6 28 42 120 54 101 59 107 80 97 16 -7 21 -16 18 -31z m1934
-61 c56 -96 66 -125 41 -125 -4 0 -36 48 -70 106 -49 84 -59 108 -49 115 8 5
15 9 15 9 1 0 29 -47 63 -105z m-369 -80 c64 -33 87 -150 40 -199 -26 -28
-127 -64 -140 -50 -10 12 -75 223 -69 227 9 7 105 35 122 36 10 1 31 -6 47
-14z m-1015 -42 c41 -9 75 -20 75 -24 0 -17 -21 -18 -84 -5 l-66 14 -6 -24
c-9 -34 2 -54 28 -55 45 -1 98 -23 90 -37 -7 -10 -20 -10 -70 2 -34 8 -64 11
-66 8 -2 -4 -6 -23 -10 -44 l-7 -36 71 -13 c55 -9 70 -16 70 -30 0 -16 -5 -16
-87 3 -48 10 -89 20 -91 22 -2 3 17 100 43 214 6 26 13 27 110 5z m558 -100
c11 -117 9 -183 -7 -183 -10 0 -16 19 -21 61 -7 56 -9 60 -29 55 -11 -3 -39
-6 -62 -6 l-41 0 5 -54 c3 -35 0 -56 -8 -61 -22 -14 -28 10 -32 128 -4 108 -3
117 14 117 15 0 18 -8 18 -50 0 -48 1 -50 28 -50 15 0 44 3 65 6 37 7 37 7 37
55 0 35 4 49 14 49 9 0 15 -21 19 -67z"/>
<path d="M1994 3081 c-108 -49 -162 -220 -105 -330 l23 -44 41 96 c62 148 96
122 36 -28 -16 -42 -29 -84 -27 -93 5 -30 89 -63 179 -70 57 -5 84 -11 87 -21
4 -11 -12 -13 -89 -9 -75 4 -104 10 -146 31 l-51 27 -11 -51 c-21 -97 -32
-277 -21 -347 37 -233 200 -295 343 -131 100 115 141 243 142 444 0 156 -18
235 -78 348 -39 74 -130 159 -193 181 -60 20 -79 20 -130 -3z"/>
<path d="M3161 2335 c-55 -63 -87 -144 -63 -159 15 -9 52 24 72 65 19 37 39
129 27 129 -3 0 -19 -16 -36 -35z"/>
<path d="M3830 2605 c-25 -27 -25 -41 0 -22 23 19 43 47 33 47 -5 0 -20 -11
-33 -25z"/>
<path d="M3060 978 c-19 -5 -37 -11 -38 -13 -8 -8 53 -175 64 -175 26 0 75 23
84 40 16 30 11 83 -10 118 -11 17 -24 32 -29 32 -5 0 -15 2 -23 4 -7 2 -29 0
-48 -6z"/>
</g>
</svg>
